<svg xmlns="http://www.w3.org/2000/svg" width="128" height="128" viewBox="0 0 128 128">
  <!-- Background Circle -->
  <circle cx="64" cy="64" r="60" fill="#25D366"/>
  
  <!-- Chat Bubble -->
  <path d="M32 56c0-17.67 14.33-32 32-32s32 14.33 32 32c0 17.67-14.33 32-32 32-5.5 0-10.7-1.4-15.2-3.8L28 92l7.8-20.8C33.4 66.7 32 61.5 32 56z" fill="white"/>
  
  <!-- Pencil/Draft Icon -->
  <g transform="translate(48, 40)">
    <path d="M2 26l-2 8 8-2 18-18c1.1-1.1 1.1-2.9 0-4l-2-2c-1.1-1.1-2.9-1.1-4 0L2 26z" fill="#25D366"/>
    <path d="M16 12l4 4" stroke="#128C7E" stroke-width="2" fill="none"/>
  </g>
</svg>
